# xmcd
#
# Track frame offsets: 
#        150
#        3607
#        41455
#        71500
#        94190
#        123215
#        163442
#        183522
#        213710
#        242050
#        259562
#        293002
#        319870
#
# Disc length: 4697 seconds
#
# Revision: 1
# Processed by: cddbd v1.5.2PL0 Copyright (c) Steve Scherf et al.
# Submitted via: ExactAudioCopy v0.95b4
#
DISCID=bc12570d
DTITLE=The Prodigy - Music For The Jilted Generation Disc 1
DYEAR=1994
DGENRE=Techno
TTITLE0=Intro
TTITLE1=Break and Enter
TTITLE2=Their Law (Feauturing Pop Will Eat Itself)
TTITLE3=Full Throttle
TTITLE4=Voodoo People
TTITLE5=Speedway (Theme From Fastlane)
TTITLE6=The Heat (The Energy)
TTITLE7=Poison
TTITLE8=No Good (Start The Dance)
TTITLE9=One Love (Edit)
TTITLE10=3 Kilos
TTITLE11=Skylined
TTITLE12=Claustrophobic Sting
EXTD=YEAR: 1994
EXTT0=
EXTT1=
EXTT2=
EXTT3=
EXTT4=
EXTT5=
EXTT6=
EXTT7=
EXTT8=
EXTT9=
EXTT10=
EXTT11=
EXTT12=
PLAYORDER=
